<!-- <svg width="35" height="32" viewBox="0 0 35 32" fill="none" xmlns="http://www.w3.org/2000/svg">
<g clip-path="url(#clip0_1_17)">
<path d="M0.518044 25.7006L13.8961 2.45466C14.5925 1.2431 15.8882 0.5 17.2892 0.5C19.8644 0.5 21.7432 2.94737 21.0629 5.42705L17.4998 18.4958L18.7226 19.2147L22.221 13.3265C22.9093 12.1634 24.1726 11.4607 25.525 11.4849C27.6791 11.5172 29.3635 13.3507 29.2258 15.4911L28.6671 24.0206V24.0448C29.3149 23.6167 30.0923 23.3663 30.9264 23.3663C33.1777 23.3663 35.0079 25.1918 35.0079 27.4372C35.0079 29.6826 33.1777 31.5081 30.9264 31.5081C28.6751 31.5081 26.845 29.6826 26.845 27.4372C26.845 27.1165 26.8531 27.106 26.8774 26.9445V26.9122C26.8936 26.8072 26.9098 26.7103 26.926 26.6053L27.7358 21.6701L26.8126 21.0563L21.7108 29.5615C20.9981 30.7488 19.7105 31.4838 18.3177 31.4838C15.7668 31.4838 13.888 29.1172 14.463 26.6456L17.4917 13.698L16.5604 13.3911L7.22327 29.5534C6.53493 30.7488 5.25543 31.4838 3.87066 31.4838C0.898654 31.4838 -0.963908 28.2772 0.518044 25.7006Z" fill="#635BFF"/>
</g>
<defs>
<clipPath id="clip0_1_17">
<rect width="35" height="31" fill="white" transform="matrix(-1 0 0 1 35 0.5)"/>
</clipPath>
</defs>
</svg> -->
<svg id="e9g0dab7Fnt1" xmlns="http://www.w3.org/2000/svg" xmlns:xlink="http://www.w3.org/1999/xlink" viewBox="0 0 34 26" shape-rendering="geometricPrecision" text-rendering="geometricPrecision" project-id="dcaaa1d5994a40be9bbb78b1aa4ebaaf" export-id="c654ed0bd1b74e5085d3abb9602ff29e" cached="true"><path d="M20.1369,26c2.7614,0,5.0473-2.2575,4.5363-4.9712-.3204-1.7014-.8053-3.3694-1.4497-4.9786-1.2633-3.1544-3.1148-6.0207-5.449-8.43498s-5.1053-4.32947-8.15501-5.63609c-1.50566-.64507-3.06468-1.135592-4.6546-1.466934C2.26154,-0.051182,0,2.23858,0,5v16c0,2.7614,2.23858,5,5,5h15.1369Z" fill="#615dff"/><g style="mix-blend-mode:multiply"><path d="M13.7013,26c-2.7614,0-5.04735-2.2575-4.53628-4.9712.32042-1.7014.80529-3.3694,1.44968-4.9786c1.2633-3.1544,3.1148-6.0207,5.449-8.43498s5.1053-4.32947,8.155-5.63609c1.5057-.64507,3.0647-1.135592,4.6546-1.466934C31.5767,-0.051182,33.8382,2.23858,33.8382,5v16c0,2.7614-2.2386,5-5,5h-15.1369Z" fill="#3dd9eb"/></g></svg>

