<!-- <svg width="28" height="24" viewBox="0 0 28 24" fill="none" xmlns="http://www.w3.org/2000/svg">
<g clip-path="url(#clip0_780_1232)">
<path d="M0.401075 19.5102L10.7583 1.51329C11.2975 0.5753 12.3006 0 13.3852 0C15.3789 0 16.8334 1.89474 16.3068 3.81449L13.5482 13.9323L14.4949 14.4888L17.2033 9.93017C17.7362 9.0297 18.7143 8.48567 19.7613 8.50443C21.429 8.52944 22.733 9.94893 22.6265 11.606L22.1939 18.2095V18.2282C22.6954 17.8968 23.2973 17.703 23.943 17.703C25.686 17.703 27.1029 19.1162 27.1029 20.8546C27.1029 22.593 25.686 24.0063 23.943 24.0063C22.2001 24.0063 20.7832 22.593 20.7832 20.8546C20.7832 20.6063 20.7895 20.5982 20.8083 20.4732V20.4481C20.8208 20.3669 20.8334 20.2918 20.8459 20.2105L21.4729 16.3898L20.7581 15.9145L16.8084 22.4992C16.2566 23.4184 15.2598 23.9875 14.1814 23.9875C12.2065 23.9875 10.752 22.1553 11.1972 20.2418L13.5419 10.2178L12.821 9.9802L5.59222 22.493C5.05931 23.4184 4.06873 23.9875 2.99665 23.9875C0.695742 23.9875 -0.746243 21.5049 0.401075 19.5102Z" fill="white"/>
</g>
<defs>
<clipPath id="clip0_780_1232">
<rect width="27.0968" height="24" fill="white" transform="matrix(-1 0 0 1 27.0968 0)"/>
</clipPath>
</defs>
</svg> -->
<svg id="e9g0dab7Fnt1" xmlns="http://www.w3.org/2000/svg" xmlns:xlink="http://www.w3.org/1999/xlink" viewBox="0 0 34 26" shape-rendering="geometricPrecision" text-rendering="geometricPrecision" project-id="dcaaa1d5994a40be9bbb78b1aa4ebaaf" export-id="c654ed0bd1b74e5085d3abb9602ff29e" cached="false"><path d="M20.1369,26c2.7614,0,5.0473-2.2575,4.5363-4.9712-.3204-1.7014-.8053-3.3694-1.4497-4.9786-1.2633-3.1544-3.1148-6.0207-5.449-8.43498s-5.1053-4.32947-8.15501-5.63609c-1.50566-.64507-3.06468-1.135592-4.6546-1.466934C2.26154,-0.051182,0,2.23858,0,5v16c0,2.7614,2.23858,5,5,5h15.1369Z" fill="#615dff"/><g style="mix-blend-mode:multiply"><path d="M13.7013,26c-2.7614,0-5.04735-2.2575-4.53628-4.9712.32042-1.7014.80529-3.3694,1.44968-4.9786c1.2633-3.1544,3.1148-6.0207,5.449-8.43498s5.1053-4.32947,8.155-5.63609c1.5057-.64507,3.0647-1.135592,4.6546-1.466934C31.5767,-0.051182,33.8382,2.23858,33.8382,5v16c0,2.7614-2.2386,5-5,5h-15.1369Z" fill="#3dd9eb"/></g></svg>
